<svg xmlns="http://www.w3.org/2000/svg" width="19" height="14" viewBox="0 0 19 14">
  <defs>
    <style>
      .cls-1 {
        fill: #fff;
        fill-rule: evenodd;
      }
    </style>
  </defs>
  <path id="Rectangle_648_copy_2" data-name="Rectangle 648 copy 2" class="cls-1" d="M1,0H13a1,1,0,0,1,0,2H1A1,1,0,0,1,1,0ZM18.793,7.484l-2.382,2.3a0.742,0.742,0,0,1-1.021,0,0.679,0.679,0,0,1,0-.985l0.848-.817H0.954a1,1,0,0,1,0-2H16.235L15.39,5.164a0.678,0.678,0,0,1,0-.984,0.74,0.74,0,0,1,1.021,0l2.382,2.3A0.711,0.711,0,0,1,18.793,7.484ZM1,12H13a1,1,0,0,1,0,2H1A1,1,0,0,1,1,12Z"/>
</svg>
