<svg xmlns="http://www.w3.org/2000/svg" width="196" height="50" viewBox="0 0 196 50">
  <metadata><?xpacket begin="﻿" id="W5M0MpCehiHzreSzNTczkc9d"?>
<x:xmpmeta xmlns:x="adobe:ns:meta/" x:xmptk="Adobe XMP Core 5.6-c138 79.159824, 2016/09/14-01:09:01        ">
   <rdf:RDF xmlns:rdf="http://www.w3.org/1999/02/22-rdf-syntax-ns#">
      <rdf:Description rdf:about=""/>
   </rdf:RDF>
</x:xmpmeta>
                                                                                                    
                                                                                                    
                                                                                                    
                                                                                                    
                                                                                                    
                                                                                                    
                                                                                                    
                                                                                                    
                                                                                                    
                                                                                                    
                                                                                                    
                                                                                                    
                                                                                                    
                                                                                                    
                                                                                                    
                                                                                                    
                                                                                                    
                                                                                                    
                                                                                                    
                                                                                                    
                           
<?xpacket end="w"?></metadata>
<defs>
    <style>
      .cls-1 {
        fill: #26211d;
      }

      .cls-1, .cls-2 {
        fill-rule: evenodd;
      }

      .cls-2 {
        fill: #ffc40c;
      }
    </style>
  </defs>
  <path id="Crypterio" class="cls-1" d="M74.36,36.36a10.625,10.625,0,0,0,8.61-3.57l-2.94-3.15c-1.65,1.5-3.12,2.46-5.52,2.46-3.6,0-6.09-3-6.09-6.6,0-3.66,2.55-6.6,6.09-6.6a7.269,7.269,0,0,1,5.4,2.34l2.76-3.18A11.077,11.077,0,0,0,63.59,25.5,10.614,10.614,0,0,0,74.36,36.36ZM84.98,36h4.56V30.06c0-3.84,1.86-5.67,4.89-5.67h0.24v-4.77c-2.7-.12-4.2,1.32-5.13,3.54v-3.24H84.98V36Zm15.179,4.89c2.73,0,4.05-1.23,5.28-4.5l6.18-16.469h-4.74l-3.51,10.95L99.71,19.921H94.88l6.3,16.139a1.523,1.523,0,0,1-1.59,1.05,4.144,4.144,0,0,1-1.95-.63l-1.53,3.3A7.549,7.549,0,0,0,100.159,40.89Zm12.96-.09h4.56V33.9a6.175,6.175,0,0,0,5.01,2.4c3.81,0,7.32-2.94,7.32-8.31,0-5.43-3.57-8.37-7.32-8.37a5.905,5.905,0,0,0-5.01,2.61v-2.31h-4.56V40.8Zm8.4-8.37c-2.13,0-3.9-1.77-3.9-4.44,0-2.73,1.77-4.5,3.9-4.5s3.93,1.77,3.93,4.44C125.449,30.69,123.649,32.43,121.519,32.43Zm16.08,3.84a6.723,6.723,0,0,0,3.6-.93V31.68a4.638,4.638,0,0,1-2.25.57,1.321,1.321,0,0,1-1.47-1.56v-6.87h3.78v-3.9h-3.78v-4.11h-4.56v4.11H131v3.9h1.92v7.62C132.919,35.16,134.809,36.27,137.6,36.27Zm12.99,0.09a8.042,8.042,0,0,0,6.569-3l-2.61-2.31a5.269,5.269,0,0,1-3.9,1.65,3.729,3.729,0,0,1-3.929-3.15h11.189c0.03-.42.06-0.84,0.06-1.2,0-4.56-2.46-8.73-7.829-8.73-4.68,0-7.95,3.78-7.95,8.37A8.057,8.057,0,0,0,150.589,36.36Zm-3.93-9.66c0.36-2.07,1.59-3.42,3.48-3.42,1.919,0,3.119,1.38,3.389,3.42h-6.869Zm13.5,9.3h4.559V30.06c0-3.84,1.86-5.67,4.89-5.67h0.24v-4.77c-2.7-.12-4.2,1.32-5.13,3.54v-3.24h-4.559V36Zm11.43-17.849h4.8V14.1h-4.8v4.05ZM171.709,36h4.559V19.921h-4.559V36Zm15.539,0.36a8.376,8.376,0,1,0-8.67-8.37A8.439,8.439,0,0,0,187.248,36.36Zm0.06-3.93a4.272,4.272,0,0,1-4.23-4.44,4.137,4.137,0,0,1,4.17-4.44,4.272,4.272,0,0,1,4.23,4.44A4.137,4.137,0,0,1,187.308,32.43Z"/>
  <path class="cls-2" d="M25,0A25,25,0,1,1,0,25,25,25,0,0,1,25,0Zm0,4A21,21,0,1,1,4,25,21,21,0,0,1,25,4Zm0,2A19,19,0,1,1,6,25,19,19,0,0,1,25,6Z"/>
  <path id="C" class="cls-1" d="M29.225,19.506a5.107,5.107,0,0,0-3.463-1.427,4.679,4.679,0,0,0-2.545.748,5.134,5.134,0,0,0-1.879,2.2,6.618,6.618,0,0,0-.382,1.055h2.089v1.957H20.663c-0.005.133-.018,0.26-0.018,0.4A9.953,9.953,0,0,0,20.771,26h2.274v1.957h-1.7a7.8,7.8,0,0,0,.892,1.609,4.953,4.953,0,0,0,4.171,2.148,5.95,5.95,0,0,0,3.154-.928,10.979,10.979,0,0,0,3.267-3.09L35,29.289a16.084,16.084,0,0,1-3.867,3.977A10.935,10.935,0,0,1,25.11,35a9.584,9.584,0,0,1-8.56-4.975,10.185,10.185,0,0,1-.867-2.067H13.474L12.649,26h2.638a11.063,11.063,0,0,1-.068-1.117c0-.286.03-0.562,0.05-0.84H11.824L11,22.085h4.593a9.732,9.732,0,0,1,.923-2.254,9.307,9.307,0,0,1,3.531-3.554A9.872,9.872,0,0,1,25.026,15a9.929,9.929,0,0,1,4.889,1.164l0.462-.831h1.989l1.919,6.942-2.608.748A13,13,0,0,0,29.225,19.506Z"/>
</svg>
